<?xml version="1.0" standalone="no"?>
<!DOCTYPE svg PUBLIC "-//W3C//DTD SVG 20010904//EN"
 "http://www.w3.org/TR/2001/REC-SVG-20010904/DTD/svg10.dtd">
<svg version="1.0" xmlns="http://www.w3.org/2000/svg"
 width="1400.000000pt" height="1400.000000pt" viewBox="0 0 1400.000000 1400.000000"
 preserveAspectRatio="xMidYMid meet">

<g transform="translate(0.000000,1400.000000) scale(0.100000,-0.100000)"
fill="#000000" stroke="none">
<path d="M6785 12890 c-631 -32 -1226 -210 -1745 -525 -400 -242 -775 -605
-1041 -1006 -371 -559 -528 -1218 -529 -2212 0 -188 -1 -198 -18 -192 -50 15
-180 35 -274 41 -241 16 -486 -46 -678 -170 -87 -56 -209 -172 -266 -252 -62
-87 -128 -231 -160 -349 -23 -87 -27 -120 -28 -255 0 -132 3 -168 23 -245 55
-213 154 -379 325 -550 133 -133 210 -191 533 -400 135 -88 271 -183 301 -212
l55 -52 -5 -63 c-4 -50 -16 -85 -58 -168 -135 -270 -320 -521 -556 -755 -282
-280 -575 -488 -999 -708 -325 -168 -444 -257 -535 -399 -202 -312 -140 -679
166 -982 172 -170 525 -350 924 -472 185 -56 208 -66 249 -100 37 -31 49 -52
105 -188 131 -316 377 -502 739 -561 51 -8 178 -20 282 -25 499 -27 620 -40
815 -86 244 -57 333 -98 705 -321 399 -239 574 -325 850 -417 644 -212 1397
-216 2039 -9 288 92 503 197 920 448 255 153 369 212 481 248 236 77 450 109
830 127 471 21 631 53 819 160 179 102 301 254 391 487 32 84 72 136 124 163
21 10 113 42 205 70 393 120 729 288 913 455 77 69 173 195 218 286 56 110 79
207 79 329 0 125 -18 201 -74 315 -93 188 -201 277 -571 468 -729 376 -1239
850 -1540 1430 -61 118 -72 148 -77 202 l-5 63 44 45 c24 25 162 122 306 215
342 222 396 263 534 401 175 175 272 335 326 539 23 85 26 117 26 257 0 141
-3 172 -26 258 -31 115 -99 265 -161 351 -253 353 -728 503 -1208 381 l-28 -7
0 213 c0 1064 -187 1752 -638 2353 -191 253 -426 491 -656 663 -689 514 -1528
758 -2451 713z m405 -670 c602 -36 1115 -206 1565 -518 327 -227 635 -575 808
-914 153 -301 229 -592 279 -1078 19 -187 16 -1018 -5 -1323 -9 -130 -14 -245
-11 -255 19 -59 51 -82 116 -82 36 0 179 48 408 135 405 154 588 177 757 95
110 -54 171 -154 181 -298 12 -182 -106 -338 -408 -537 -69 -45 -237 -156
-375 -246 -397 -262 -467 -319 -513 -418 -23 -49 -24 -62 -19 -155 12 -215
143 -556 334 -871 146 -240 294 -432 497 -642 344 -357 735 -641 1235 -898
218 -112 265 -156 246 -232 -12 -51 -104 -125 -241 -195 -186 -95 -328 -148
-594 -223 -260 -73 -312 -91 -400 -135 -134 -68 -178 -137 -210 -330 -34 -202
-55 -247 -138 -289 -70 -36 -160 -47 -477 -61 -453 -20 -719 -61 -1030 -160
-150 -48 -331 -139 -630 -320 -395 -237 -623 -344 -881 -410 -233 -60 -408
-81 -684 -81 -402 1 -699 59 -1040 206 -122 52 -241 118 -525 288 -362 218
-489 279 -709 343 -279 80 -531 116 -951 134 -427 19 -512 42 -567 155 -19 38
-24 59 -43 182 -30 200 -82 280 -228 351 -86 42 -138 59 -427 141 -227 63
-343 107 -515 191 -270 133 -340 229 -237 322 21 19 118 76 217 127 657 341
1155 749 1534 1256 270 360 486 824 522 1120 10 77 9 99 -5 147 -20 69 -63
127 -141 191 -53 43 -365 253 -772 520 -149 98 -291 227 -340 308 -44 74 -67
167 -58 238 21 167 118 278 275 315 160 38 317 4 760 -164 246 -94 304 -108
360 -91 31 9 45 20 57 46 15 31 15 58 -2 352 -21 377 -25 977 -6 1198 50 603
169 991 421 1365 476 708 1282 1144 2215 1199 192 12 215 12 395 1z"/>
</g>
</svg>
